<?xml version="1.0" encoding="utf-8"?>
<!-- Generator: Adobe Illustrator 25.0.1, SVG Export Plug-In . SVG Version: 6.00 Build 0)  -->
<svg version="1.1" id="Layer_1" xmlns="http://www.w3.org/2000/svg" xmlns:xlink="http://www.w3.org/1999/xlink" x="0px" y="0px"
	 viewBox="0 0 264 45.6" style="enable-background:new 0 0 264 45.6;" xml:space="preserve">
<style type="text/css">
	.st0{fill:#FFFFFF;}
</style>
<g>
	<path class="st0" d="M63.9,7.9c-0.9-1.1-2.2-1.8-3.7-1.7c-2.2,0-3.1,0.9-3.1,2.1c0,1.4,1.6,1.7,3.4,1.9c3.2,0.4,6.2,1.2,6.2,4.9
		c0,3.4-3,4.9-6.5,4.9c-3.1,0-5.6-1-6.7-3.8L56,15c0.8,1.6,2.5,2.6,4.3,2.5c1.8,0,3.6-0.6,3.6-2.3c0-1.5-1.5-2.1-3.6-2.3
		c-3.1-0.4-6.1-1.2-6.1-4.7c0-3.1,3.1-4.5,6-4.5c2.4,0,4.9,0.7,6.1,3.1L63.9,7.9z"/>
	<path class="st0" d="M81.4,4.2l-6.9,7.4l7.4,7.8v0.2h-3.6l-6.5-6.8v6.8H69V4.2h2.9v6.5l5.9-6.5L81.4,4.2L81.4,4.2z"/>
	<path class="st0" d="M90,10.5l4.1-6.3h3.5v0.1l-6.2,8.9v6.4h-2.9v-6.4l-5.9-8.9V4.2H86L90,10.5z"/>
	<path class="st0" d="M110.4,19.6H98.9V4.2h11.5V7h-8.7v3.6h8.4v2.7h-8.4v3.5h8.7V19.6z"/>
	<path class="st0" d="M130.7,11.7c0.1,3.9-2.3,7.9-7.7,7.9h-6.1V4.2h6.1C128.3,4.2,130.6,7.9,130.7,11.7z M119.8,16.7h3.1
		c3.5,0,4.9-2.6,4.8-5.1c0.1-2.5-1.8-4.7-4.4-4.8c-0.2,0-0.3,0-0.5,0h-3.1V16.7z"/>
	<path class="st0" d="M132.9,19.6V4.2h2.9v15.4H132.9z"/>
	<path class="st0" d="M150,7.9c-1.1-1-2.5-1.5-3.9-1.6c-3.3,0-5.3,2.5-5.3,5.7c-0.2,2.7,1.9,5,4.6,5.2c0.2,0,0.5,0,0.7,0
		c1.3,0,2.5-0.4,3.5-1.2v-2.7h-3.9v-2.6h6.6v6.5c-1.5,1.8-3.8,2.9-6.2,2.8c-5.8,0-8.2-3.8-8.2-7.9c0-4.3,2.7-8.4,8.2-8.4
		c2.1,0,4.2,0.9,5.7,2.4L150,7.9z"/>
	<path class="st0" d="M154.7,19.6V4.2h2.9v15.4H154.7z"/>
	<path class="st0" d="M167.6,15h-4.4v4.5h-2.9V4.2h7.3C175.1,4.1,175.1,15,167.6,15z M163.2,12.4h4.4c1.5,0.1,2.8-1.1,2.9-2.6
		c0.1-1.5-1.1-2.8-2.6-2.9c-0.1,0-0.2,0-0.3,0h-4.4V12.4z"/>
	<path class="st0" d="M188.9,19.6h-3.5l-4.5-5.2h-2.8v5.2h-2.9V4.1h7.3c3.6,0,5.6,2.5,5.6,5.1c0.2,2.4-1.5,4.5-3.9,4.8l4.7,5.2
		L188.9,19.6z M178.1,6.9v4.9h4.4c1.3,0.1,2.5-0.8,2.6-2.2c0-0.1,0-0.2,0-0.3c0-1.3-1-2.4-2.4-2.5c-0.1,0-0.2,0-0.3,0L178.1,6.9z"/>
	<path class="st0" d="M201.6,19.6h-11.6V4.2h11.6V7H193v3.6h8.4v2.7H193v3.5h8.7V19.6z"/>
	<path class="st0" d="M214.5,4.1h2.9v15.5h-1.8l0,0l-8.1-10.5v10.5h-2.9V4.2h2.4l7.6,9.6V4.1z"/>
	<path class="st0" d="M231.6,19.6H220V4.2h11.6V7h-8.7v3.6h8.4v2.7h-8.4v3.5h8.7L231.6,19.6z"/>
	<path class="st0" d="M247.4,4.2V13c0,4.6-2.8,6.9-6.7,6.9c-3.7,0-6.9-2.3-6.9-6.9V4.2h2.9V13c0,2.8,1.6,4.3,4,4.3s3.8-1.6,3.8-4.3
		V4.2H247.4z"/>
	<path class="st0" d="M264,19.6h-3.5l-4.5-5.2h-2.8v5.2h-2.9V4.1h7.3c3.6,0,5.6,2.5,5.6,5.1c0.2,2.4-1.5,4.5-3.9,4.8l4.7,5.2
		L264,19.6z M253.2,6.9v4.9h4.5c1.3,0.1,2.5-0.8,2.6-2.2c0-0.1,0-0.2,0-0.3c0-1.3-1-2.4-2.4-2.5c-0.1,0-0.2,0-0.3,0H253.2z"/>
	<path class="st0" d="M61.1,30.7c-0.1-0.4-0.2-0.7-0.4-1c-0.2-0.3-0.4-0.5-0.6-0.7c-0.3-0.2-0.5-0.3-0.8-0.4c-0.3-0.1-0.7-0.1-1-0.1
		c-0.4,0-0.7,0-1,0.1c-0.3,0.1-0.6,0.2-0.9,0.4c-0.3,0.2-0.5,0.4-0.6,0.7c-0.2,0.3-0.2,0.7-0.2,1c0,0.3,0.1,0.7,0.3,0.9
		c0.2,0.3,0.4,0.5,0.7,0.7c0.3,0.2,0.7,0.4,1,0.5l1.2,0.5c0.5,0.2,0.9,0.4,1.4,0.6c0.4,0.2,0.8,0.4,1.2,0.7c0.4,0.3,0.7,0.6,0.9,1
		c0.2,0.5,0.3,1,0.3,1.5c0,0.5-0.1,0.9-0.2,1.4c-0.1,0.4-0.3,0.7-0.6,1c-0.3,0.3-0.6,0.6-0.9,0.8c-0.4,0.2-0.7,0.4-1.1,0.5
		c-0.4,0.1-0.8,0.2-1.3,0.3c-0.4,0.1-0.9,0.1-1.3,0.1c-0.5,0-1,0-1.5-0.1c-0.5-0.1-1-0.1-1.5-0.3c-0.1,0-0.1-0.1-0.2-0.1
		c0,0-0.1-0.1-0.1-0.2c0-0.2,0-0.4,0-0.7c0-0.3,0-0.6,0-0.9c0-0.3,0-0.6,0-0.9s0-0.4,0-0.5l0.6-0.1c0,0.4,0.2,0.8,0.4,1.2
		c0.2,0.3,0.4,0.6,0.7,0.8c0.3,0.2,0.6,0.4,1,0.5c0.4,0.1,0.8,0.1,1.2,0.1c0.4,0,0.7,0,1.1-0.1c0.3-0.1,0.7-0.2,0.9-0.4
		c0.3-0.2,0.5-0.4,0.7-0.7c0.2-0.3,0.2-0.7,0.2-1c0-0.3-0.1-0.6-0.3-0.9c-0.2-0.3-0.4-0.5-0.7-0.7c-0.3-0.2-0.7-0.4-1-0.5l-1.2-0.5
		c-0.5-0.2-0.9-0.4-1.4-0.6c-0.4-0.2-0.8-0.5-1.2-0.8c-0.4-0.3-0.7-0.6-0.9-1c-0.3-0.5-0.5-1.1-0.5-1.6c0-0.7,0.2-1.3,0.5-1.9
		c0.3-0.5,0.7-0.9,1.1-1.2c0.5-0.3,1-0.5,1.6-0.6c0.6-0.1,1.2-0.2,1.8-0.2c0.5,0,0.9,0,1.4,0.1c0.5,0.1,0.9,0.1,1.4,0.3
		c0.1,0,0.1,0,0.2,0.1c0,0,0.1,0.1,0.1,0.2c0,0.2,0,0.4,0,0.7s0,0.6,0,0.9c0,0.3,0,0.6,0,0.8s0,0.4,0,0.4L61.1,30.7z"/>
	<path class="st0" d="M75.7,39.9c-0.4,0.2-0.8,0.4-1.3,0.6c-0.5,0.1-0.9,0.3-1.4,0.4c-0.4,0.1-0.8,0.1-1.3,0.2c-0.3,0-0.6,0.1-1,0.1
		c-1,0-1.9-0.2-2.9-0.5c-0.8-0.3-1.6-0.8-2.2-1.5c-0.6-0.6-1.1-1.4-1.4-2.2C64,36,63.8,35,63.8,34.1c0-1,0.2-2,0.6-2.9
		c0.4-0.8,0.9-1.5,1.6-2.1c0.7-0.6,1.5-1,2.4-1.3c1-0.3,2-0.5,3-0.5c0.6,0,1.2,0,1.8,0.1c0.6,0.1,1.1,0.2,1.6,0.3
		c0.1,0,0.1,0,0.2,0.1c0,0,0.1,0.1,0.1,0.2c0,0.1,0,0.2,0,0.4s0,0.3,0,0.5v0.6c0,0.2,0,0.4,0,0.6c0,0.2,0,0.3,0,0.4
		c0,0.1,0,0.2,0,0.2l-0.6,0.1c0-0.4-0.2-0.8-0.4-1.2c-0.2-0.3-0.5-0.6-0.9-0.8c-0.3-0.2-0.6-0.4-1-0.5c-0.4-0.1-0.8-0.1-1.2-0.1
		c-0.7,0-1.5,0.1-2.2,0.4c-0.6,0.3-1.1,0.6-1.5,1.1c-0.4,0.5-0.7,1.1-0.9,1.7c-0.2,0.7-0.3,1.4-0.3,2.1c0,0.9,0.1,1.7,0.4,2.5
		c0.2,0.7,0.6,1.4,1.1,2c0.5,0.6,1.1,1,1.8,1.3c0.8,0.3,1.7,0.5,2.6,0.5c0.6,0,1.2-0.1,1.7-0.2c0.6-0.1,1.1-0.3,1.7-0.5L75.7,39.9z"
		/>
	<path class="st0" d="M86.9,27.9c0-0.2,0.1-0.3,0.3-0.3c0,0,0,0,0,0l0.4-0.1H88h0.4h0.3c0.2,0,0.3,0.1,0.3,0.3v12.6
		c0,0.2-0.1,0.3-0.2,0.3c0,0,0,0,0,0l-0.4,0.1h-0.5h-0.4h-0.3c-0.1,0-0.3-0.1-0.3-0.2c0,0,0,0,0-0.1v-6.4l-6.6,0.1v6.2
		c0,0.2-0.1,0.3-0.3,0.3c0,0,0,0,0,0l-0.4,0.1h-0.5h-0.4h-0.3c-0.1,0-0.3-0.1-0.3-0.2c0,0,0,0,0-0.1V29.4c0-0.2,0-0.3-0.1-0.5
		c0-0.1-0.1-0.2-0.2-0.3c-0.1-0.1-0.2-0.1-0.3-0.2c-0.1,0-0.2-0.1-0.4-0.1c-0.2,0-0.3,0-0.5,0l-0.1-0.6l1.2-0.2l1-0.1l0.7-0.1h0.4
		c0.2,0,0.3,0.1,0.4,0.3c0,0,0,0.1,0,0.1v5.5h6.6V27.9z"/>
	<path class="st0" d="M98.8,27.2c0.9,0,1.8,0.1,2.6,0.5c0.8,0.3,1.4,0.7,2,1.3c0.6,0.6,1,1.3,1.3,2.1c0.3,0.9,0.5,1.9,0.5,2.8
		c0,1-0.2,2.1-0.5,3c-0.3,0.8-0.8,1.6-1.4,2.2c-0.6,0.6-1.4,1.1-2.2,1.4c-0.9,0.3-1.9,0.5-2.9,0.5c-0.9,0-1.8-0.1-2.6-0.5
		c-0.8-0.3-1.5-0.7-2-1.3c-0.6-0.6-1-1.3-1.3-2.1c-0.3-0.9-0.5-1.9-0.4-2.8c0-1,0.2-2.1,0.5-3c0.6-1.7,2-3,3.7-3.5
		C96.8,27.4,97.8,27.2,98.8,27.2z M98.2,28.2c-0.7,0-1.3,0.1-1.9,0.5c-0.5,0.3-1,0.7-1.3,1.2c-0.3,0.5-0.6,1.1-0.7,1.8
		c-0.2,0.7-0.2,1.4-0.2,2.1c0,0.8,0.1,1.6,0.3,2.3c0.2,0.7,0.4,1.4,0.8,2.1c0.4,0.6,0.9,1.1,1.4,1.5c0.6,0.4,1.4,0.6,2.1,0.6
		c0.7,0,1.3-0.1,1.9-0.5c0.5-0.3,1-0.7,1.3-1.2c0.3-0.5,0.6-1.1,0.7-1.8c0.2-0.7,0.2-1.4,0.2-2.1c0-0.8-0.1-1.6-0.3-2.3
		c-0.2-0.7-0.4-1.4-0.8-2c-0.4-0.6-0.9-1.1-1.4-1.4C99.7,28.4,99,28.2,98.2,28.2L98.2,28.2z"/>
	<path class="st0" d="M114.1,27.2c0.9,0,1.8,0.1,2.6,0.5c0.8,0.3,1.5,0.7,2,1.3c0.6,0.6,1,1.3,1.3,2.1c0.3,0.9,0.5,1.9,0.5,2.8
		c0,1-0.2,2.1-0.5,3c-0.3,0.8-0.8,1.6-1.4,2.2c-0.6,0.6-1.4,1.1-2.3,1.4c-0.9,0.3-1.9,0.5-2.9,0.5c-0.9,0-1.8-0.1-2.6-0.5
		c-0.8-0.3-1.5-0.7-2-1.3c-0.6-0.6-1-1.3-1.3-2.1c-0.3-0.9-0.5-1.9-0.5-2.8c0-1,0.2-2.1,0.5-3c0.3-0.9,0.8-1.6,1.5-2.3
		c0.6-0.6,1.4-1.1,2.2-1.3C112.2,27.4,113.1,27.2,114.1,27.2z M113.6,28.2c-0.7,0-1.3,0.1-1.9,0.5c-0.5,0.3-1,0.7-1.3,1.2
		c-0.3,0.5-0.6,1.1-0.7,1.7c-0.2,0.7-0.2,1.4-0.2,2.1c0,0.8,0.1,1.6,0.3,2.3c0.1,0.7,0.4,1.4,0.8,2.1c0.4,0.6,0.9,1.1,1.4,1.5
		c0.6,0.4,1.4,0.6,2.1,0.6c0.7,0,1.3-0.1,1.9-0.5c0.5-0.3,1-0.7,1.3-1.2c0.3-0.5,0.6-1.1,0.7-1.8c0.2-0.7,0.2-1.4,0.2-2.1
		c0-0.8-0.1-1.6-0.3-2.3c-0.2-0.7-0.4-1.4-0.8-2c-0.4-0.6-0.9-1.1-1.4-1.4C115,28.4,114.3,28.2,113.6,28.2L113.6,28.2z"/>
	<path class="st0" d="M125.4,39c0,0.2,0,0.3,0,0.4c0,0.1,0,0.2,0.1,0.2c0.1,0.1,0.2,0.1,0.3,0.1h0.5h1.1c0.6,0,1.1,0,1.5,0
		c0.3,0,0.7-0.1,1-0.3c0.3-0.2,0.5-0.4,0.7-0.7c0.3-0.4,0.5-0.9,0.7-1.4l0.6,0.1c0,0.1,0,0.3-0.1,0.4c0,0.2-0.1,0.5-0.1,0.8
		l-0.2,0.9c-0.1,0.3-0.1,0.6-0.2,0.8c-0.1,0.2-0.3,0.4-0.6,0.4h-2.1h-4.9c-0.1,0-0.2,0-0.2-0.1c0-0.1-0.1-0.1-0.1-0.2V29.4
		c0-0.2,0-0.3-0.1-0.5c0-0.1-0.1-0.2-0.2-0.3c-0.1-0.1-0.2-0.1-0.3-0.2c-0.1,0-0.2-0.1-0.4-0.1c-0.2,0-0.3,0-0.5,0l-0.1-0.6l1.2-0.2
		l1-0.1l0.7-0.1h0.4c0.2,0,0.3,0.1,0.4,0.3c0,0,0,0.1,0,0.1L125.4,39z"/>
</g>
<path class="st0" d="M14.1,6.4l1.6,0.9v2.5l-2.2,1.3l-2.2-1.3V8L9.1,9.3l1.1,0.6V12l-1.8,1.1l-1.5-0.9v9.1l18.2-11V0L14.1,6.4z
	 M13.5,13.8l-0.9,0.5l-0.9-0.5v-1l0.9-0.5l0.9,0.5V13.8z"/>
<polygon class="st0" points="25.1,0 25.1,10.3 43.4,21.3 43.4,10.5 "/>
<polygon class="st0" points="43.4,24.4 43.4,35.2 25.1,45.6 25.1,34.9 "/>
<polygon class="st0" points="43.4,35.1 43.4,24.3 25.1,13.4 16,18.7 "/>
<polygon class="st0" points="18.7,17.1 16.3,15.6 6.9,21.3 25.1,31.8 31.4,28.1 16,18.7 "/>
<polygon class="st0" points="18.7,17.1 16,18.7 31.4,28.1 33.9,26.5 "/>
<polygon class="st0" points="18.7,17.1 16,18.7 31.4,28.1 33.9,26.5 "/>
<polygon class="st0" points="6.8,24.4 6.8,35.2 25.1,45.6 25.1,34.9 "/>
<polygon class="st0" points="6.7,7.9 4.9,6.8 3.1,7.9 3.1,9.9 4.9,10.9 6.7,9.9 "/>
<polygon class="st0" points="13.5,3.9 11.4,2.7 9.3,3.9 9.3,6.3 11.4,7.6 13.5,6.3 "/>
<polygon class="st0" points="6.9,2.5 5.9,1.9 4.9,2.5 4.9,3.7 5.9,4.3 6.9,3.7 "/>
<polygon class="st0" points="2,3.3 1,2.7 0,3.3 0,4.4 1,5 2,4.4 "/>
</svg>
